# xmcd CD database file
#
# Track frame offsets:
#	150
#	12597
#	24620
#	38592
#	50140
#	59530
#	74367
#	84657
#	102590
#	114245
#	125900
#	141507
#
# Disc length: 2088 seconds
#
# Revision: 0
# Processed by: cddbd v1.5.1PL0 Copyright (c) Steve Scherf et al.
# Submitted via: CDex 1.51
#
DISCID=b608260c
DTITLE=Billy Troy and Prime Meridian - Billy Troy
DYEAR=1900
DGENRE=Country
TTITLE0=She Is My Point Of No Return
TTITLE1=It's A Long Way Home
TTITLE2=Is It Love At All
TTITLE3=The Middle Of Nowhere
TTITLE4=All Hat And No Cattle
TTITLE5=One Day
TTITLE6=Rhythm Section
TTITLE7=I Wanna Love You Tonight
TTITLE8=Hole In My Boot
TTITLE9=Sleepin' On The Shoulder Of The Road
TTITLE10=Someone's Child
TTITLE11=There Are No Words
EXTD=
EXTT0=
EXTT1=
EXTT2=
EXTT3=
EXTT4=
EXTT5=
EXTT6=
EXTT7=
EXTT8=
EXTT9=
EXTT10=
EXTT11=
PLAYORDER=
